<?xml version="1.0" encoding="UTF-8" standalone="no"?>
<svg
   xmlns:dc="http://purl.org/dc/elements/1.1/"
   xmlns:cc="http://creativecommons.org/ns#"
   xmlns:rdf="http://www.w3.org/1999/02/22-rdf-syntax-ns#"
   xmlns:svg="http://www.w3.org/2000/svg"
   xmlns="http://www.w3.org/2000/svg"
   id="svg1190"
   version="1.1"
   viewBox="0 0 11.493064 11.209466"
   height="11.209466mm"
   width="11.493064mm">
  <defs
     id="defs1184" />
  <metadata
     id="metadata1187">
    <rdf:RDF>
      <cc:Work
         rdf:about="">
        <dc:format>image/svg+xml</dc:format>
        <dc:type
           rdf:resource="http://purl.org/dc/dcmitype/StillImage" />
        <dc:title></dc:title>
      </cc:Work>
    </rdf:RDF>
  </metadata>
  <g
     transform="translate(-82.699855,-130.37741)"
     id="layer1">
    <path
       id="path198"
       style="fill:#ffffff;fill-opacity:1;fill-rule:evenodd;stroke:none;stroke-width:0.35277775"
       d="m 88.4459,130.37741 c -3.173237,0 -5.746045,2.57281 -5.746045,5.74675 0,2.53894 1.646414,4.69265 3.929945,5.45289 0.287513,0.0526 0.392288,-0.12489 0.392288,-0.27729 0,-0.13617 -0.0049,-0.49777 -0.0078,-0.97719 -1.598436,0.34713 -1.935691,-0.77047 -1.935691,-0.77047 -0.261409,-0.66393 -0.638175,-0.84067 -0.638175,-0.84067 -0.521759,-0.3563 0.03951,-0.34925 0.03951,-0.34925 0.576791,0.0406 0.88018,0.59232 0.88018,0.59232 0.512586,0.87806 1.345142,0.62441 1.67252,0.4773 0.05221,-0.37112 0.200377,-0.62441 0.364772,-0.76799 -1.275997,-0.145 -2.617611,-0.63818 -2.617611,-2.84022 0,-0.62724 0.224014,-1.14018 0.591608,-1.54199 -0.05927,-0.14534 -0.256469,-0.72954 0.05609,-1.52082 0,0 0.4826,-0.15452 1.580445,0.58913 0.458258,-0.1277 0.95003,-0.1912 1.438627,-0.19332 0.487892,0.002 0.979664,0.0656 1.438628,0.19332 1.097139,-0.74365 1.57868,-0.58913 1.57868,-0.58913 0.31362,0.79128 0.116417,1.37548 0.05715,1.52082 0.368301,0.40181 0.590903,0.91475 0.590903,1.54199 0,2.20769 -1.34373,2.69346 -2.623961,2.83563 0.206375,0.17745 0.390172,0.52811 0.390172,1.06433 0,0.768 -0.0071,1.38783 -0.0071,1.57621 0,0.15381 0.103364,0.33267 0.395112,0.27658 2.28177,-0.76165 3.926772,-2.91394 3.926772,-5.45218 0,-3.17394 -2.573161,-5.74675 -5.747102,-5.74675" />
  </g>
</svg>
