<?xml version="1.0" encoding="UTF-8" standalone="no"?>
<svg
   xmlns:dc="http://purl.org/dc/elements/1.1/"
   xmlns:cc="http://creativecommons.org/ns#"
   xmlns:rdf="http://www.w3.org/1999/02/22-rdf-syntax-ns#"
   xmlns:svg="http://www.w3.org/2000/svg"
   xmlns="http://www.w3.org/2000/svg"
   id="svg4"
   version="1.1"
   viewBox="0 0 197.814 197.81799"
   height="197.81799"
   width="197.814">
  <metadata
     id="metadata10">
    <rdf:RDF>
      <cc:Work
         rdf:about="">
        <dc:format>image/svg+xml</dc:format>
        <dc:type
           rdf:resource="http://purl.org/dc/dcmitype/StillImage" />
        <dc:title></dc:title>
      </cc:Work>
    </rdf:RDF>
  </metadata>
  <defs
     id="defs8" />
  <path
     style="fill:#ffffff;fill-opacity:1"
     id="path2"
     d="M 98.906,197.818 C 44.369,197.818 0,153.451 0,98.909 0,44.372 44.369,0 98.906,0 c 54.545,0 98.908,44.372 98.908,98.909 0,54.542 -44.363,98.909 -98.908,98.909 z m 0,-185.238 c -47.601,0 -86.33,38.723 -86.33,86.329 0,47.605 38.729,86.332 86.33,86.332 47.61,0 86.338,-38.727 86.338,-86.332 0,-47.606 -38.728,-86.329 -86.338,-86.329 z m 11.521,37.489 c -4.832,-9.785 -7.783,-19.3 -9.273,-24.845 v 70.055 c 2.447,0.917 4.197,3.257 4.197,6.021 0,3.559 -2.887,6.442 -6.443,6.442 -3.56,0 -6.443,-2.885 -6.443,-6.442 0,-2.896 1.925,-5.317 4.558,-6.131 V 25.15 C 95.538,30.681 92.585,40.242 87.73,50.069 80.159,65.383 70.721,78.892 70.721,78.892 l 6.036,82.598 c 0,0 5.736,6.401 22.31,6.41 h 0.023 c 16.573,-0.009 22.312,-6.41 22.312,-6.41 l 6.035,-82.598 c -0.003,0 -9.441,-13.508 -17.01,-28.823 z" />
</svg>
